G04 #@! TF.GenerationSoftware,KiCad,Pcbnew,(5.1.5)-3*
G04 #@! TF.CreationDate,2020-10-27T13:49:36+01:00*
G04 #@! TF.ProjectId,Benjolin Panel,42656e6a-6f6c-4696-9e20-50616e656c2e,rev?*
G04 #@! TF.SameCoordinates,Original*
G04 #@! TF.FileFunction,Legend,Bot*
G04 #@! TF.FilePolarity,Positive*
%FSLAX46Y46*%
G04 Gerber Fmt 4.6, Leading zero omitted, Abs format (unit mm)*
G04 Created by KiCad (PCBNEW (5.1.5)-3) date 2020-10-27 13:49:36*
%MOMM*%
%LPD*%
G04 APERTURE LIST*
%ADD10C,0.300000*%
G04 APERTURE END LIST*
D10*
X79939428Y-128210571D02*
X79939428Y-129282000D01*
X79868000Y-129496285D01*
X79725142Y-129639142D01*
X79510857Y-129710571D01*
X79368000Y-129710571D01*
X81368000Y-129710571D02*
X80653714Y-129710571D01*
X80653714Y-128210571D01*
X82725142Y-129567714D02*
X82653714Y-129639142D01*
X82439428Y-129710571D01*
X82296571Y-129710571D01*
X82082285Y-129639142D01*
X81939428Y-129496285D01*
X81868000Y-129353428D01*
X81796571Y-129067714D01*
X81796571Y-128853428D01*
X81868000Y-128567714D01*
X81939428Y-128424857D01*
X82082285Y-128282000D01*
X82296571Y-128210571D01*
X82439428Y-128210571D01*
X82653714Y-128282000D01*
X82725142Y-128353428D01*
X83796571Y-128210571D02*
X83796571Y-129282000D01*
X83725142Y-129496285D01*
X83582285Y-129639142D01*
X83368000Y-129710571D01*
X83225142Y-129710571D01*
X85225142Y-129710571D02*
X84510857Y-129710571D01*
X84510857Y-128210571D01*
X86582285Y-129567714D02*
X86510857Y-129639142D01*
X86296571Y-129710571D01*
X86153714Y-129710571D01*
X85939428Y-129639142D01*
X85796571Y-129496285D01*
X85725142Y-129353428D01*
X85653714Y-129067714D01*
X85653714Y-128853428D01*
X85725142Y-128567714D01*
X85796571Y-128424857D01*
X85939428Y-128282000D01*
X86153714Y-128210571D01*
X86296571Y-128210571D01*
X86510857Y-128282000D01*
X86582285Y-128353428D01*
X87653714Y-128210571D02*
X87653714Y-129282000D01*
X87582285Y-129496285D01*
X87439428Y-129639142D01*
X87225142Y-129710571D01*
X87082285Y-129710571D01*
X89082285Y-129710571D02*
X88368000Y-129710571D01*
X88368000Y-128210571D01*
X90439428Y-129567714D02*
X90368000Y-129639142D01*
X90153714Y-129710571D01*
X90010857Y-129710571D01*
X89796571Y-129639142D01*
X89653714Y-129496285D01*
X89582285Y-129353428D01*
X89510857Y-129067714D01*
X89510857Y-128853428D01*
X89582285Y-128567714D01*
X89653714Y-128424857D01*
X89796571Y-128282000D01*
X90010857Y-128210571D01*
X90153714Y-128210571D01*
X90368000Y-128282000D01*
X90439428Y-128353428D01*
X91510857Y-128210571D02*
X91510857Y-129282000D01*
X91439428Y-129496285D01*
X91296571Y-129639142D01*
X91082285Y-129710571D01*
X90939428Y-129710571D01*
X92939428Y-129710571D02*
X92225142Y-129710571D01*
X92225142Y-128210571D01*
X94296571Y-129567714D02*
X94225142Y-129639142D01*
X94010857Y-129710571D01*
X93868000Y-129710571D01*
X93653714Y-129639142D01*
X93510857Y-129496285D01*
X93439428Y-129353428D01*
X93368000Y-129067714D01*
X93368000Y-128853428D01*
X93439428Y-128567714D01*
X93510857Y-128424857D01*
X93653714Y-128282000D01*
X93868000Y-128210571D01*
X94010857Y-128210571D01*
X94225142Y-128282000D01*
X94296571Y-128353428D01*
M02*
